<svg width="33" height="32" viewBox="0 0 33 32" fill="none" xmlns="http://www.w3.org/2000/svg">
<path d="M20.864 8.75944H8.82275L10.2598 6.24384C10.3452 6.09195 10.5078 6 10.6776 6H21.5688C21.7321 6 21.8817 6.08867 21.963 6.23071L23.6252 9.13465C23.6805 9.23317 23.6805 9.3555 23.6252 9.45402L21.6696 12.8719L23.4562 16L21.8915 18.7397L18.6418 13.0567C18.5702 12.9319 18.5702 12.7767 18.6418 12.6519L20.8649 8.76026L20.864 8.75944ZM8.70814 23.0427L10.2663 25.7693C10.3476 25.9105 10.5012 26 10.6638 26H21.5517C21.7248 26 21.8841 25.908 21.9719 25.7562L23.4098 23.2406H11.5701L13.6892 19.5361C13.7607 19.4113 13.7607 19.2562 13.6892 19.1314L10.3346 13.2677L8.77317 16.0008L10.6638 19.3062L8.70814 22.7274C8.65287 22.8259 8.65287 22.9483 8.70814 23.0435V23.0427Z" fill="#7E54F1"/>
<path d="M13 22.3333H23.4474C23.679 22.3333 23.8904 22.2084 24.0082 22.0039L27.1962 16.4218C27.3791 16.1022 27.3791 15.707 27.1962 15.3874L24.1188 10L22.5411 12.7615L24.3342 15.905L23.2125 17.8719L22.2996 19.4667L22.2411 19.5686H14.5777L13 22.3333Z" fill="#7E54F1"/>
<path d="M5.13523 16.5303L8.25261 22L9.8081 19.2712L7.9537 16.0188L9.95555 12.5091L10.0197 12.3986H17.7778L19.3333 9.66666H8.83121C8.60282 9.66666 8.39125 9.79006 8.27826 9.99222L5.13523 15.5082C4.95492 15.824 4.95492 16.2145 5.13523 16.5303Z" fill="#7E54F1"/>
</svg>
