<svg width="186" height="32" viewBox="0 0 186 32" fill="none" xmlns="http://www.w3.org/2000/svg">
<path d="M29.1415 11.1205C30.328 9.92883 31.9799 9.33334 34.0986 9.33334C35.2124 9.33334 36.194 9.48926 37.0427 9.80109C37.8915 10.1129 38.5169 10.4916 38.9192 10.9357C39.3208 11.3799 39.649 11.8293 39.9052 12.2833C40.1607 12.7373 40.3068 13.1159 40.3435 13.4179L40.4257 13.9001H36.8378C36.8195 13.8627 36.8011 13.8005 36.7828 13.716C36.7644 13.6308 36.6873 13.4939 36.55 13.3046C36.4128 13.1159 36.2578 12.9456 36.0845 12.7943C35.9106 12.6429 35.6463 12.506 35.2902 12.3829C34.9341 12.2603 34.5369 12.1988 34.0986 12.1988C33.0576 12.1988 32.2677 12.5204 31.7295 13.1631C31.1906 13.8064 30.9218 14.7137 30.9218 15.8864C30.9218 17.059 31.1957 18.0279 31.7434 18.7374C32.2911 19.4462 33.076 19.8013 34.0986 19.8013C34.7924 19.8013 35.3673 19.6172 35.824 19.2483C36.28 18.8795 36.5633 18.5061 36.6727 18.1275L36.8372 17.5883H40.3979C40.3795 17.7206 40.3517 17.9001 40.3156 18.1275C40.2783 18.3541 40.1278 18.7616 39.8634 19.3473C39.5984 19.9336 39.2651 20.4492 38.8635 20.8933C38.4613 21.3381 37.8409 21.7443 37.001 22.1131C36.1611 22.4819 35.1934 22.6667 34.098 22.6667C31.9616 22.6667 30.3001 22.062 29.1137 20.8507C27.9266 19.6408 27.3333 17.9853 27.3333 15.8864C27.3333 13.9197 27.9354 12.3311 29.1409 11.1205H29.1415Z" fill="#4B575C"/>
<path d="M43.0542 11.2338C44.2957 9.96683 46.0026 9.33334 48.1757 9.33334C50.3488 9.33334 52.0603 9.96683 53.3112 11.2338C54.5616 12.5008 55.1871 14.0901 55.1871 15.9997C55.1871 17.9093 54.566 19.5169 53.3245 20.7656C52.0647 22.0325 50.3482 22.666 48.1757 22.666C46.0033 22.666 44.2906 22.028 43.0402 20.7512C41.7893 19.475 41.1638 17.891 41.1638 15.9997C41.1638 14.1084 41.7943 12.5008 43.0542 11.2338ZM44.7523 15.9997C44.7523 17.0963 45.0438 18.0043 45.6289 18.723C46.2133 19.4416 47.062 19.8006 48.1764 19.8006C49.2908 19.8006 50.1161 19.437 50.71 18.7085C51.3026 17.9807 51.5998 17.0773 51.5998 15.999C51.5998 14.8644 51.3076 13.9472 50.7233 13.2469C50.1389 12.5473 49.2895 12.1975 48.1764 12.1975C47.0633 12.1975 46.2133 12.5479 45.6289 13.2469C45.0445 13.9466 44.7523 14.8644 44.7523 15.9997Z" fill="#4B575C"/>
<path d="M59.9254 9.617V11.4041C60.7647 10.0422 62.0068 9.35234 63.6499 9.33334H63.8415C65.8502 9.33334 67.265 9.88232 68.0865 10.979C68.9081 12.0763 69.3186 13.6459 69.3186 15.6885V22.3837H65.7857V15.6885C65.7857 13.4002 64.9641 12.2466 63.321 12.2276H63.2388C62.1434 12.2276 61.3396 12.601 60.8285 13.3485C60.3169 14.096 60.0614 15.1598 60.0614 16.5401V22.3843H56.5285V9.617H59.9248H59.9254Z" fill="#4B575C"/>
<path d="M72.3316 11.1205C73.518 9.92883 75.17 9.33334 77.2887 9.33334C78.4025 9.33334 79.384 9.48926 80.2328 9.80109C81.0815 10.1129 81.707 10.4916 82.1092 10.9357C82.5109 11.3799 82.8391 11.8293 83.0952 12.2833C83.3507 12.7373 83.4968 13.1159 83.5335 13.4179L83.6157 13.9001H80.0279C80.0095 13.8627 79.9912 13.8005 79.9728 13.716C79.9545 13.6308 79.8773 13.4939 79.7401 13.3046C79.6028 13.1159 79.4479 12.9456 79.2746 12.7943C79.1007 12.6429 78.8363 12.506 78.4802 12.3829C78.1242 12.2603 77.727 12.1988 77.2887 12.1988C76.2477 12.1988 75.4578 12.5204 74.9195 13.1631C74.3807 13.8064 74.1119 14.7137 74.1119 15.8864C74.1119 17.059 74.3858 18.0279 74.9335 18.7374C75.4812 19.4462 76.266 19.8013 77.2887 19.8013C77.9825 19.8013 78.5574 19.6172 79.014 19.2483C79.47 18.8795 79.7534 18.5061 79.8628 18.1275L80.0272 17.5883H83.5879C83.5696 17.7206 83.5417 17.9001 83.5057 18.1275C83.4684 18.3541 83.3179 18.7616 83.0535 19.3473C82.7885 19.9336 82.4552 20.4492 82.0536 20.8933C81.6514 21.3381 81.0309 21.7443 80.191 22.1131C79.3511 22.4819 78.3835 22.6667 77.2881 22.6667C75.1517 22.6667 73.4902 22.062 72.3037 20.8507C71.1166 19.6408 70.5234 17.9853 70.5234 15.8864C70.5234 13.9197 71.1255 12.3311 72.3309 11.1205H72.3316Z" fill="#4B575C"/>
<path d="M86.1076 11.1775C87.2757 9.94849 88.8828 9.33334 90.9275 9.33334C92.9722 9.33334 94.5015 9.94325 95.6247 11.163C96.748 12.3829 97.3089 14.0049 97.3089 16.0285C97.3089 16.3692 97.2906 16.719 97.2539 17.078H87.8051C87.8778 17.9106 88.2111 18.5723 88.805 19.0636C89.3983 19.5556 90.1237 19.8013 90.9825 19.8013C91.3841 19.8013 91.7446 19.7541 92.0647 19.6591C92.3834 19.5648 92.6301 19.456 92.804 19.3329C92.9773 19.2103 93.1234 19.0826 93.2423 18.9503C93.3606 18.8179 93.4383 18.7046 93.475 18.6096L93.5294 18.4675H97.0629C97.0446 18.5808 97.0035 18.7328 96.9396 18.9214C96.8751 19.1108 96.7024 19.4462 96.4191 19.9283C96.1358 20.4105 95.7936 20.8363 95.392 21.2051C94.9898 21.574 94.3965 21.91 93.6116 22.212C92.8261 22.514 91.9407 22.666 90.9547 22.666C88.9827 22.666 87.3896 22.0659 86.1753 20.8645C84.961 19.6637 84.3538 18.0515 84.3538 16.0279C84.3538 14.0042 84.9376 12.4248 86.107 11.1768L86.1076 11.1775ZM93.8855 14.6384V14.5532C93.8855 13.8346 93.6116 13.2627 93.0639 12.8368C92.5162 12.411 91.813 12.1988 90.9553 12.1988C90.0977 12.1988 89.3622 12.4254 88.805 12.8794C88.2478 13.3334 87.9151 13.9197 87.8051 14.6384H93.8849H93.8855Z" fill="#4B575C"/>
<path d="M98.6511 9.617H102.102V11.5181C102.832 10.2511 103.936 9.617 105.416 9.617H106.867V12.6809H105.498C104.055 12.6809 103.143 13.0452 102.759 13.773C102.376 14.5015 102.184 16.0757 102.184 18.4963V22.383H98.6511V9.617Z" fill="#4B575C"/>
<path d="M108.866 11.2338C110.108 9.96683 111.815 9.33334 113.988 9.33334C116.161 9.33334 117.873 9.96683 119.124 11.2338C120.374 12.5008 121 14.0901 121 15.9997C121 17.9093 120.379 19.5169 119.137 20.7656C117.878 22.0325 116.16 22.666 113.988 22.666C111.816 22.666 110.103 22.028 108.852 20.7512C107.602 19.475 106.976 17.891 106.976 15.9997C106.976 14.1084 107.606 12.5008 108.866 11.2338H108.866ZM110.565 15.9997C110.565 17.0963 110.856 18.0043 111.441 18.723C112.025 19.4416 112.874 19.8006 113.988 19.8006C115.102 19.8006 115.928 19.437 116.521 18.7085C117.114 17.9807 117.411 17.0773 117.411 15.999C117.411 14.8644 117.119 13.9472 116.535 13.2469C115.95 12.5473 115.101 12.1975 113.988 12.1975C112.875 12.1975 112.025 12.5479 111.441 13.2469C110.857 13.9466 110.565 14.8637 110.565 15.999V15.9997Z" fill="#4B575C"/>
<path d="M15.864 8.75944H3.82275L5.25984 6.24384C5.34519 6.09195 5.50775 6 5.67763 6H16.5688C16.7321 6 16.8817 6.08867 16.963 6.23071L18.6252 9.13465C18.6805 9.23317 18.6805 9.3555 18.6252 9.45402L16.6696 12.8719L18.4562 16L16.8915 18.7397L13.6418 13.0567C13.5702 12.9319 13.5702 12.7767 13.6418 12.6519L15.8649 8.76026L15.864 8.75944ZM3.70814 23.0427L5.26634 25.7693C5.34762 25.9105 5.50125 26 5.66382 26H16.5517C16.7248 26 16.8841 25.908 16.9719 25.7562L18.4098 23.2406H6.57012L8.68918 19.5361C8.7607 19.4113 8.7607 19.2562 8.68918 19.1314L5.33462 13.2677L3.77317 16.0008L5.66382 19.3062L3.70814 22.7274C3.65287 22.8259 3.65287 22.9483 3.70814 23.0435V23.0427Z" fill="#7E54F1"/>
<path d="M8 22.3333H18.4474C18.679 22.3333 18.8904 22.2084 19.0082 22.0039L22.1962 16.4218C22.3791 16.1022 22.3791 15.707 22.1962 15.3874L19.1188 10L17.5411 12.7615L19.3342 15.905L18.2125 17.8719L17.2996 19.4667L17.2411 19.5686H9.57771L8 22.3333Z" fill="#7E54F1"/>
<path d="M0.135233 16.5303L3.25261 22L4.8081 19.2712L2.9537 16.0188L4.95555 12.5091L5.01966 12.3986H12.7778L14.3333 9.66666H3.83121C3.60282 9.66666 3.39125 9.79006 3.27826 9.99222L0.135233 15.5082C-0.0450778 15.824 -0.0450778 16.2145 0.135233 16.5303Z" fill="#7E54F1"/>
<path d="M145.736 23.288C145.112 23.288 144.552 23.208 144.056 23.048C143.576 22.888 143.144 22.672 142.76 22.4C142.392 22.112 142.08 21.792 141.824 21.44L141.464 23H138.584V5.72H141.824V12.584C142.208 12.024 142.712 11.56 143.336 11.192C143.976 10.808 144.768 10.616 145.712 10.616C146.832 10.616 147.824 10.896 148.688 11.456C149.568 12 150.256 12.752 150.752 13.712C151.264 14.656 151.52 15.744 151.52 16.976C151.52 18.176 151.264 19.256 150.752 20.216C150.256 21.176 149.576 21.928 148.712 22.472C147.848 23.016 146.856 23.288 145.736 23.288ZM144.968 20.456C145.608 20.456 146.168 20.312 146.648 20.024C147.144 19.72 147.528 19.312 147.8 18.8C148.072 18.272 148.208 17.664 148.208 16.976C148.208 16.288 148.072 15.68 147.8 15.152C147.528 14.608 147.144 14.192 146.648 13.904C146.168 13.6 145.608 13.448 144.968 13.448C144.344 13.448 143.784 13.6 143.288 13.904C142.808 14.192 142.424 14.6 142.136 15.128C141.864 15.656 141.728 16.264 141.728 16.952C141.728 17.64 141.864 18.256 142.136 18.8C142.424 19.328 142.808 19.736 143.288 20.024C143.784 20.312 144.344 20.456 144.968 20.456ZM153.831 23V5.72H157.071V23H153.831ZM165.461 23.288C164.309 23.288 163.269 23.024 162.341 22.496C161.429 21.952 160.701 21.208 160.157 20.264C159.629 19.304 159.365 18.208 159.365 16.976C159.365 15.712 159.629 14.608 160.157 13.664C160.701 12.704 161.437 11.96 162.365 11.432C163.293 10.888 164.333 10.616 165.485 10.616C166.653 10.616 167.693 10.888 168.605 11.432C169.533 11.96 170.261 12.704 170.789 13.664C171.333 14.608 171.605 15.704 171.605 16.952C171.605 18.2 171.333 19.304 170.789 20.264C170.261 21.208 169.533 21.952 168.605 22.496C167.677 23.024 166.629 23.288 165.461 23.288ZM165.461 20.48C166.005 20.48 166.485 20.352 166.901 20.096C167.333 19.84 167.669 19.448 167.909 18.92C168.165 18.392 168.293 17.736 168.293 16.952C168.293 16.168 168.165 15.52 167.909 15.008C167.669 14.48 167.333 14.088 166.901 13.832C166.485 13.56 166.013 13.424 165.485 13.424C164.973 13.424 164.501 13.56 164.069 13.832C163.637 14.088 163.293 14.48 163.037 15.008C162.797 15.52 162.677 16.168 162.677 16.952C162.677 17.736 162.797 18.392 163.037 18.92C163.293 19.448 163.629 19.84 164.045 20.096C164.477 20.352 164.949 20.48 165.461 20.48ZM178.352 28.568C177.2 28.568 176.192 28.424 175.328 28.136C174.464 27.864 173.792 27.44 173.312 26.864C172.848 26.304 172.616 25.608 172.616 24.776C172.616 24.216 172.76 23.688 173.048 23.192C173.336 22.696 173.752 22.248 174.296 21.848C174.856 21.432 175.552 21.08 176.384 20.792L177.608 22.376C176.872 22.616 176.336 22.912 176 23.264C175.68 23.632 175.52 24.024 175.52 24.44C175.52 24.808 175.64 25.12 175.88 25.376C176.136 25.632 176.472 25.816 176.888 25.928C177.32 26.056 177.8 26.12 178.328 26.12C178.84 26.12 179.28 26.056 179.648 25.928C180.032 25.8 180.328 25.608 180.536 25.352C180.76 25.112 180.872 24.824 180.872 24.488C180.872 24.056 180.72 23.704 180.416 23.432C180.112 23.16 179.504 22.992 178.592 22.928C177.776 22.864 177.048 22.776 176.408 22.664C175.784 22.536 175.232 22.392 174.752 22.232C174.272 22.056 173.864 21.864 173.528 21.656C173.208 21.448 172.944 21.24 172.736 21.032V20.48L175.304 17.72L177.632 18.464L174.608 21.44L175.52 19.856C175.696 19.952 175.864 20.048 176.024 20.144C176.2 20.224 176.416 20.304 176.672 20.384C176.928 20.448 177.264 20.512 177.68 20.576C178.096 20.64 178.624 20.696 179.264 20.744C180.32 20.84 181.184 21.04 181.856 21.344C182.544 21.648 183.048 22.056 183.368 22.568C183.688 23.064 183.848 23.68 183.848 24.416C183.848 25.136 183.648 25.808 183.248 26.432C182.864 27.072 182.264 27.584 181.448 27.968C180.632 28.368 179.6 28.568 178.352 28.568ZM178.352 19.424C177.344 19.424 176.472 19.232 175.736 18.848C175.016 18.448 174.456 17.92 174.056 17.264C173.672 16.592 173.48 15.848 173.48 15.032C173.48 14.216 173.672 13.48 174.056 12.824C174.456 12.152 175.016 11.616 175.736 11.216C176.472 10.816 177.344 10.616 178.352 10.616C179.376 10.616 180.248 10.816 180.968 11.216C181.704 11.616 182.264 12.152 182.648 12.824C183.032 13.48 183.224 14.216 183.224 15.032C183.224 15.848 183.032 16.592 182.648 17.264C182.264 17.92 181.704 18.448 180.968 18.848C180.248 19.232 179.376 19.424 178.352 19.424ZM178.352 16.952C178.976 16.952 179.48 16.792 179.864 16.472C180.248 16.152 180.44 15.68 180.44 15.056C180.44 14.432 180.248 13.96 179.864 13.64C179.48 13.304 178.976 13.136 178.352 13.136C177.744 13.136 177.24 13.304 176.84 13.64C176.456 13.96 176.264 14.432 176.264 15.056C176.264 15.68 176.456 16.152 176.84 16.472C177.24 16.792 177.744 16.952 178.352 16.952ZM180.368 13.208L179.84 10.904H184.808V12.824L180.368 13.208Z" fill="#4B575C"/>
<rect width="16" height="2" rx="1" transform="matrix(-4.37114e-08 1 1 4.37114e-08 128 8)" fill="#4B575C"/>
</svg>
